<svg height="512" viewBox="0 0 58 58" width="512" xmlns="http://www.w3.org/2000/svg"><g id="Page-1" fill="none" fill-rule="evenodd"><g id="006---Scoreboard" fill-rule="nonzero"><path id="Rectangle-path" d="m25 44h8v10h-8z" fill="#56595e"/><path id="Shape" d="m58 13v31c-.0032948 1.1032019-.8967981 1.9967052-2 2h-54c-1.10320187-.0032948-1.9967052-.8967981-2-2v-31c.0032948-1.1032019.89679813-1.9967052 2-2h2.13c-.08930412.3257307-.13305328.6622628-.13 1v1c0 .5522847.44771525 1 1 1h48c.5522847 0 1-.4477153 1-1v-1c.0030533-.3377372-.0406959-.6742693-.13-1h2.13c1.1032019.0032948 1.9967052.8967981 2 2z" fill="#3b97d3"/><path id="Shape" d="m53.87 11h2.05c.0534831.3306435.0802364.665059.08 1v1c-.0049422 1.6548028-1.3451972 2.9950578-3 3h-48c-1.6548028-.0049422-2.9950578-1.3451972-3-3v-1c.00058331-.3349081.02733137-.6692587.08-1z" fill="#2980ba"/><rect id="Rectangle-path" fill="#35495e" height="20" rx="1" width="17" x="6" y="20"/><rect id="Rectangle-path" fill="#35495e" height="20" rx="1" width="17" x="35" y="20"/><path id="Shape" d="m22 41h-15c-1.1045695 0-2-.8954305-2-2v-18c0-1.1045695.8954305-2 2-2h15c1.1045695 0 2 .8954305 2 2v18c0 1.1045695-.8954305 2-2 2zm-15-20v18h15v-18z" fill="#2980ba"/><g fill="#f0c419"><circle id="Oval" cx="29" cy="27" r="1"/><circle id="Oval" cx="29" cy="33" r="1"/><path id="Shape" d="m16 36h-3c-1.6568542 0-3-1.3431458-3-3v-6c0-1.6568542 1.3431458-3 3-3h3c1.6568542 0 3 1.3431458 3 3v6c0 1.6568542-1.3431458 3-3 3zm-3-10c-.5522847 0-1 .4477153-1 1v6c0 .5522847.4477153 1 1 1h3c.5522847 0 1-.4477153 1-1v-6c0-.5522847-.4477153-1-1-1z"/></g><path id="Shape" d="m51 41h-15c-1.1045695 0-2-.8954305-2-2v-18c0-1.1045695.8954305-2 2-2h15c1.1045695 0 2 .8954305 2 2v18c0 1.1045695-.8954305 2-2 2zm-15-20v18h15v-18z" fill="#2980ba"/><path id="Shape" d="m45 36h-3c-1.6568542 0-3-1.3431458-3-3v-6c0-1.6568542 1.3431458-3 3-3h3c1.6568542 0 3 1.3431458 3 3v6c0 1.6568542-1.3431458 3-3 3zm-3-10c-.5522847 0-1 .4477153-1 1v6c0 .5522847.4477153 1 1 1h3c.5522847 0 1-.4477153 1-1v-6c0-.5522847-.4477153-1-1-1z" fill="#f0c419"/><path id="Shape" d="m35 54v3c0 .5522847-.4477153 1-1 1h-10c-.5522847 0-1-.4477153-1-1v-3c.0032948-1.1032019.8967981-1.9967052 2-2h8c1.1032019.0032948 1.9967052.8967981 2 2z" fill="#ff5364"/><path id="Shape" d="m27 3v5h-4v-4h-9v4h-4v-5c0-1.65685425 1.3431458-3 3-3h11c1.6568542 0 3 1.34314575 3 3z" fill="#95a5a5"/><path id="Shape" d="m48 3v5h-4v-4h-9v4h-4v-5c0-1.65685425 1.3431458-3 3-3h11c1.6568542 0 3 1.34314575 3 3z" fill="#95a5a5"/><path id="Shape" d="m54 12v1c0 .5522847-.4477153 1-1 1h-48c-.55228475 0-1-.4477153-1-1v-1c-.00305328-.3377372.04069588-.6742693.13-1 .45322096-1.76664204 2.04614936-3.00147026 3.87-3h42c1.8238506-.00147026 3.416779 1.23335796 3.87 3 .0893041.3257307.1330533.6622628.13 1z" fill="#bdc3c7"/></g></g></svg>